<svg xmlns="http://www.w3.org/2000/svg" viewBox="0 0 32 32">
<path fill="currentColor" d="M32 16c0 8.837-7.163 16-16 16s-16-7.163-16-16c0-8.837 7.163-16 16-16s16 7.163 16 16z"></path>
<path fill="currentColor" d="M8.78 19.279c-0.56 0.323-0.752 1.039-0.428 1.599s1.039 0.752 1.599 0.428l-1.171-2.028zM24.015 12.791c0.167-0.625-0.203-1.267-0.828-1.434l-10.178-2.727c-0.625-0.167-1.267 0.203-1.434 0.828s0.203 1.267 0.828 1.434l9.047 2.424-2.424 9.047c-0.167 0.625 0.203 1.267 0.828 1.434s1.267-0.203 1.434-0.828l2.727-10.178zM9.951 21.307l13.518-7.805-1.171-2.028-13.518 7.805 1.171 2.028z"></path>
</svg>