<svg width="411" height="183" viewBox="0 0 411 183" fill="none" xmlns="http://www.w3.org/2000/svg">
<path d="M205.5 0.5C262.216 0.5 313.544 6.76547 350.679 16.8848C369.249 21.9454 384.242 27.9626 394.58 34.623C404.94 41.298 410.5 48.5331 410.5 56C410.5 63.4669 404.94 70.702 394.58 77.377C384.242 84.0374 369.249 90.0546 350.679 95.1152C313.544 105.235 262.216 111.5 205.5 111.5C148.784 111.5 97.4556 105.235 60.3213 95.1152C41.7506 90.0546 26.7579 84.0374 16.4199 77.377C6.05969 70.702 0.5 63.4669 0.5 56C0.5 48.5331 6.05969 41.298 16.4199 34.623C26.7579 27.9626 41.7506 21.9454 60.3213 16.8848C97.4556 6.76547 148.784 0.5 205.5 0.5Z" stroke="black"/>
<path d="M205.5 34.5C262.216 34.5 313.544 40.7655 350.679 50.8848C369.249 55.9454 384.242 61.9626 394.58 68.623C404.94 75.298 410.5 82.5331 410.5 90C410.5 97.4669 404.94 104.702 394.58 111.377C384.242 118.037 369.249 124.055 350.679 129.115C313.544 139.235 262.216 145.5 205.5 145.5C148.784 145.5 97.4556 139.235 60.3213 129.115C41.7506 124.055 26.7579 118.037 16.4199 111.377C6.05969 104.702 0.5 97.4669 0.5 90C0.5 82.5331 6.05969 75.298 16.4199 68.623C26.7579 61.9626 41.7506 55.9454 60.3213 50.8848C97.4556 40.7655 148.784 34.5 205.5 34.5Z" stroke="black"/>
<path d="M205.5 71.5C262.216 71.5 313.544 77.7655 350.679 87.8848C369.249 92.9454 384.242 98.9626 394.58 105.623C404.94 112.298 410.5 119.533 410.5 127C410.5 134.467 404.94 141.702 394.58 148.377C384.242 155.037 369.249 161.055 350.679 166.115C313.544 176.235 262.216 182.5 205.5 182.5C148.784 182.5 97.4556 176.235 60.3213 166.115C41.7506 161.055 26.7579 155.037 16.4199 148.377C6.05969 141.702 0.5 134.467 0.5 127C0.5 119.533 6.05969 112.298 16.4199 105.623C26.7579 98.9626 41.7506 92.9454 60.3213 87.8848C97.4556 77.7655 148.784 71.5 205.5 71.5Z" stroke="black"/>
</svg>
